<svg width="120" height="26" viewBox="0 0 120 26" fill="none" xmlns="http://www.w3.org/2000/svg">
<path d="M1.72159 21V3.54545H4.88352V10.9347H12.9716V3.54545H16.142V21H12.9716V13.5852H4.88352V21H1.72159ZM21.3622 25.9091C20.9418 25.9091 20.5526 25.875 20.1946 25.8068C19.8423 25.7443 19.5611 25.6705 19.3509 25.5852L20.0668 23.1818C20.5156 23.3125 20.9162 23.375 21.2685 23.3693C21.6207 23.3636 21.9304 23.2528 22.1974 23.0369C22.4702 22.8267 22.7003 22.4744 22.8878 21.9801L23.152 21.2727L18.4048 7.90909H21.6776L24.6946 17.7955H24.831L27.8565 7.90909H31.1378L25.8963 22.5852C25.652 23.2784 25.3281 23.8722 24.9247 24.3665C24.5213 24.8665 24.027 25.2472 23.4418 25.5085C22.8622 25.7756 22.169 25.9091 21.3622 25.9091ZM33.2727 25.9091V7.90909H36.3068V10.0739H36.4858C36.6449 9.75568 36.8693 9.41761 37.1591 9.05966C37.4489 8.69602 37.8409 8.38636 38.3352 8.13068C38.8295 7.86932 39.4602 7.73864 40.2273 7.73864C41.2386 7.73864 42.1506 7.99716 42.9631 8.5142C43.7813 9.02557 44.429 9.78409 44.9062 10.7898C45.3892 11.7898 45.6307 13.017 45.6307 14.4716C45.6307 15.9091 45.3949 17.1307 44.9233 18.1364C44.4517 19.142 43.8097 19.9091 42.9972 20.4375C42.1847 20.9659 41.2642 21.2301 40.2358 21.2301C39.4858 21.2301 38.8636 21.1051 38.3693 20.8551C37.875 20.6051 37.4773 20.304 37.1761 19.9517C36.8807 19.5937 36.6506 19.2557 36.4858 18.9375H36.358V25.9091H33.2727ZM36.2983 14.4545C36.2983 15.3011 36.4176 16.0426 36.6562 16.679C36.9006 17.3153 37.25 17.8125 37.7045 18.1705C38.1648 18.5227 38.7216 18.6989 39.375 18.6989C40.0568 18.6989 40.6278 18.517 41.0881 18.1534C41.5483 17.7841 41.8949 17.2812 42.1278 16.6449C42.3665 16.0028 42.4858 15.2727 42.4858 14.4545C42.4858 13.642 42.3693 12.9205 42.1364 12.2898C41.9034 11.6591 41.5568 11.1648 41.0966 10.8068C40.6364 10.4489 40.0625 10.2699 39.375 10.2699C38.7159 10.2699 38.1562 10.4432 37.696 10.7898C37.2358 11.1364 36.8864 11.6222 36.6477 12.2472C36.4148 12.8722 36.2983 13.608 36.2983 14.4545ZM51.358 13.3295V21H48.2727V7.90909H51.2216V10.1335H51.375C51.6761 9.40057 52.1563 8.81818 52.8153 8.38636C53.4801 7.95455 54.3011 7.73864 55.2784 7.73864C56.1818 7.73864 56.9688 7.93182 57.6392 8.31818C58.3153 8.70455 58.8381 9.2642 59.2074 9.99716C59.5824 10.7301 59.767 11.6193 59.7614 12.6648V21H56.6761V13.142C56.6761 12.267 56.4489 11.5824 55.9943 11.0881C55.5455 10.5937 54.9233 10.3466 54.1278 10.3466C53.5881 10.3466 53.108 10.4659 52.6875 10.7045C52.2727 10.9375 51.946 11.2756 51.7074 11.7188C51.4744 12.1619 51.358 12.6989 51.358 13.3295ZM68.608 21.2557C67.3295 21.2557 66.2216 20.9744 65.2841 20.4119C64.3466 19.8494 63.6193 19.0625 63.1023 18.0511C62.5909 17.0398 62.3352 15.858 62.3352 14.5057C62.3352 13.1534 62.5909 11.9687 63.1023 10.9517C63.6193 9.93466 64.3466 9.14489 65.2841 8.58239C66.2216 8.01989 67.3295 7.73864 68.608 7.73864C69.8864 7.73864 70.9943 8.01989 71.9318 8.58239C72.8693 9.14489 73.5938 9.93466 74.1051 10.9517C74.6222 11.9687 74.8807 13.1534 74.8807 14.5057C74.8807 15.858 74.6222 17.0398 74.1051 18.0511C73.5938 19.0625 72.8693 19.8494 71.9318 20.4119C70.9943 20.9744 69.8864 21.2557 68.608 21.2557ZM68.625 18.7841C69.3182 18.7841 69.8977 18.5937 70.3636 18.2131C70.8295 17.8267 71.1761 17.3097 71.4034 16.6619C71.6364 16.0142 71.7528 15.2926 71.7528 14.4972C71.7528 13.696 71.6364 12.9716 71.4034 12.3239C71.1761 11.6705 70.8295 11.1506 70.3636 10.7642C69.8977 10.3778 69.3182 10.1847 68.625 10.1847C67.9148 10.1847 67.3239 10.3778 66.8523 10.7642C66.3864 11.1506 66.0369 11.6705 65.804 12.3239C65.5767 12.9716 65.4631 13.696 65.4631 14.4972C65.4631 15.2926 65.5767 16.0142 65.804 16.6619C66.0369 17.3097 66.3864 17.8267 66.8523 18.2131C67.3239 18.5937 67.9148 18.7841 68.625 18.7841ZM87.8459 11.3693L85.0334 11.6761C84.9538 11.392 84.8146 11.125 84.6158 10.875C84.4226 10.625 84.1612 10.4233 83.8317 10.2699C83.5021 10.1165 83.0987 10.0398 82.6214 10.0398C81.9794 10.0398 81.4396 10.179 81.0021 10.4574C80.5703 10.7358 80.3572 11.0966 80.3629 11.5398C80.3572 11.9205 80.4964 12.2301 80.7805 12.4688C81.0703 12.7074 81.5476 12.9034 82.2124 13.0568L84.4453 13.5341C85.6839 13.8011 86.6044 14.2244 87.2067 14.804C87.8146 15.3835 88.1214 16.142 88.1271 17.0795C88.1214 17.9034 87.88 18.6307 87.4027 19.2614C86.9311 19.8864 86.2749 20.375 85.4339 20.7273C84.593 21.0795 83.6271 21.2557 82.5362 21.2557C80.9339 21.2557 79.6442 20.9205 78.6669 20.25C77.6896 19.5739 77.1072 18.6335 76.9197 17.429L79.9283 17.1392C80.0646 17.7301 80.3544 18.1761 80.7976 18.4773C81.2408 18.7784 81.8175 18.929 82.5277 18.929C83.2607 18.929 83.8487 18.7784 84.2919 18.4773C84.7408 18.1761 84.9652 17.804 84.9652 17.3608C84.9652 16.9858 84.8203 16.6761 84.5305 16.4318C84.2464 16.1875 83.8033 16 83.201 15.8693L80.968 15.4006C79.7124 15.1392 78.7834 14.6989 78.1811 14.0795C77.5788 13.4545 77.2805 12.6648 77.2862 11.7102C77.2805 10.9034 77.4993 10.2045 77.9425 9.61364C78.3913 9.01705 79.0135 8.55682 79.8089 8.23295C80.6101 7.90341 81.5334 7.73864 82.5788 7.73864C84.1129 7.73864 85.3203 8.06534 86.201 8.71875C87.0874 9.37216 87.6357 10.2557 87.8459 11.3693ZM90.6712 21V7.90909H93.7564V21H90.6712ZM92.2223 6.05114C91.7337 6.05114 91.3132 5.8892 90.9609 5.56534C90.6087 5.23579 90.4325 4.84091 90.4325 4.38068C90.4325 3.91477 90.6087 3.51989 90.9609 3.19602C91.3132 2.86648 91.7337 2.7017 92.2223 2.7017C92.7166 2.7017 93.1371 2.86648 93.4837 3.19602C93.8359 3.51989 94.0121 3.91477 94.0121 4.38068C94.0121 4.84091 93.8359 5.23579 93.4837 5.56534C93.1371 5.8892 92.7166 6.05114 92.2223 6.05114ZM107.276 11.3693L104.463 11.6761C104.384 11.392 104.244 11.125 104.045 10.875C103.852 10.625 103.591 10.4233 103.261 10.2699C102.932 10.1165 102.528 10.0398 102.051 10.0398C101.409 10.0398 100.869 10.179 100.432 10.4574C100 10.7358 99.7869 11.0966 99.7926 11.5398C99.7869 11.9205 99.9261 12.2301 100.21 12.4688C100.5 12.7074 100.977 12.9034 101.642 13.0568L103.875 13.5341C105.114 13.8011 106.034 14.2244 106.636 14.804C107.244 15.3835 107.551 16.142 107.557 17.0795C107.551 17.9034 107.31 18.6307 106.832 19.2614C106.361 19.8864 105.705 20.375 104.864 20.7273C104.023 21.0795 103.057 21.2557 101.966 21.2557C100.364 21.2557 99.0739 20.9205 98.0966 20.25C97.1193 19.5739 96.5369 18.6335 96.3494 17.429L99.358 17.1392C99.4943 17.7301 99.7841 18.1761 100.227 18.4773C100.67 18.7784 101.247 18.929 101.957 18.929C102.69 18.929 103.278 18.7784 103.722 18.4773C104.17 18.1761 104.395 17.804 104.395 17.3608C104.395 16.9858 104.25 16.6761 103.96 16.4318C103.676 16.1875 103.233 16 102.631 15.8693L100.398 15.4006C99.142 15.1392 98.2131 14.6989 97.6108 14.0795C97.0085 13.4545 96.7102 12.6648 96.7159 11.7102C96.7102 10.9034 96.929 10.2045 97.3722 9.61364C97.821 9.01705 98.4432 8.55682 99.2386 8.23295C100.04 7.90341 100.963 7.73864 102.009 7.73864C103.543 7.73864 104.75 8.06534 105.631 8.71875C106.517 9.37216 107.065 10.2557 107.276 11.3693Z" fill="black"/>
<path d="M109.278 2.68217V1.90909H113.34V2.68217H111.767V7H110.852V2.68217H109.278ZM114.123 1.90909H115.252L116.763 5.59801H116.823L118.334 1.90909H119.463V7H118.578V3.50249H118.531L117.124 6.98509H116.462L115.055 3.49503H115.008V7H114.123V1.90909Z" fill="black"/>
</svg>
